<svg xmlns="http://www.w3.org/2000/svg" width="21" height="20" fill="none" viewBox="0 0 21 20"><circle cx="8.466" cy="7.182" r="3.182" fill="#3079EC"/><path fill="#3079EC" d="M8.46621 10.3638C5.17126 10.3638 2.50018 12.8447 2.50018 15.0748C3.50018 18.5001 15.0002 17.5001 14.4322 15.0748C14.4322 12.8447 11.7611 10.3638 8.46621 10.3638Z"/><path fill="#3079EC" stroke="#3079EC" stroke-linecap="round" stroke-width=".771" d="M14.6835 7.27505C14.6835 8.31454 13.8884 9.2499 12.7338 9.56297C13.2227 8.70047 13.3221 7.73694 13.2244 6.87381C13.1439 6.16314 12.9272 5.49296 12.6606 4.96824C13.8547 5.26098 14.6835 6.21374 14.6835 7.27505Z"/><path fill="#3079EC" d="M18.3302 14.9689C18.3302 12.4198 15.1818 10.0458 11.8869 10.0458C12.3337 10.8339 16.8337 13.3339 14.8337 15.8339C16.0002 17.0004 18.3302 16.5004 18.3302 14.9689Z"/></svg>