<svg width="334" height="321" viewBox="0 0 334 321" fill="none" xmlns="http://www.w3.org/2000/svg">
<g clip-path="url(#clip0_1_1109)">
<path d="M0 0H334V321H0V0Z" fill="url(#paint0_linear_1_1109)"/>
<path fill-rule="evenodd" clip-rule="evenodd" d="M318.111 65.8878C318.111 63.6963 319.992 61.918 322.312 61.918C324.635 61.918 326.516 63.6963 326.516 65.8878C326.516 68.0807 324.635 69.8575 322.312 69.8575C319.992 69.8575 318.111 68.0807 318.111 65.8878Z" fill="#ECA532"/>
<path fill-rule="evenodd" clip-rule="evenodd" d="M230.111 58.9503C230.111 56.7573 231.992 54.9805 234.313 54.9805C236.635 54.9805 238.516 56.7573 238.516 58.9503C238.516 61.1417 236.635 62.92 234.313 62.92C231.992 62.92 230.111 61.1417 230.111 58.9503Z" fill="#3079EC"/>
<path fill-rule="evenodd" clip-rule="evenodd" d="M261.14 66.3165C263.585 65.0575 265.892 63.4705 267.96 61.5144C270.926 58.714 273.113 55.4626 274.566 52L283.422 60.3678C281.97 63.8274 279.766 67.0712 276.804 69.8686C274.736 71.8216 272.436 73.4223 269.994 74.6798L261.14 66.3165Z" fill="#BAD0F7"/>
<path fill-rule="evenodd" clip-rule="evenodd" d="M190.934 244.631C190.045 243.09 188.923 241.635 187.542 240.33C185.564 238.461 183.265 237.082 180.82 236.166L186.732 230.582C189.176 231.498 191.466 232.887 193.445 234.755C194.825 236.058 195.955 237.509 196.844 239.049L190.934 244.631Z" fill="#ECA532"/>
<path fill-rule="evenodd" clip-rule="evenodd" d="M85.5742 88.6609C83.7931 88.1643 81.9106 87.8849 79.9574 87.8849C77.1587 87.8849 74.5014 88.4453 72.0869 89.4309V81.5338C74.4998 80.5482 77.1619 80 79.9574 80C81.909 80 83.7931 80.2703 85.5742 80.7654V88.6609Z" fill="#EC6632"/>
<path fill-rule="evenodd" clip-rule="evenodd" d="M340 132.755C338.217 132.258 336.336 131.979 334.383 131.979C331.584 131.979 328.927 132.539 326.511 133.526V125.628C328.926 124.642 331.586 124.094 334.383 124.094C336.335 124.094 338.219 124.364 340 124.859V132.755Z" fill="#EC6632"/>
<path fill-rule="evenodd" clip-rule="evenodd" d="M34.3806 210.578C34.9047 208.893 35.2021 207.116 35.2021 205.271C35.2021 202.627 34.6089 200.117 33.564 197.836H41.9249C42.9682 200.115 43.5469 202.629 43.5469 205.271C43.5469 207.115 43.2607 208.895 42.7366 210.578H34.3806Z" fill="#EC6632"/>
<path fill-rule="evenodd" clip-rule="evenodd" d="M302.036 247.766C301.335 250.312 300.261 252.809 298.755 255.18C296.596 258.575 293.786 261.367 290.58 263.535L294.536 268.023C298.198 266.65 301.632 264.568 304.595 261.771C306.662 259.816 308.355 257.645 309.688 255.336L302.036 247.766Z" fill="#EC6632"/>
<path fill-rule="evenodd" clip-rule="evenodd" d="M0.6149 186.816C1.3174 189.362 2.38964 191.86 3.89591 194.231C6.05646 197.626 8.86647 200.418 12.0703 202.586L8.11413 207.074C4.45374 205.701 1.02 203.619 -1.94272 200.82C-4.01003 198.867 -5.70438 196.695 -7.03544 194.387L0.6149 186.816Z" fill="#3079EC"/>
<path fill-rule="evenodd" clip-rule="evenodd" d="M60.6439 112.156C61.2532 114.367 62.184 116.536 63.4909 118.594C65.3669 121.543 67.8072 123.965 70.5898 125.85L67.1561 129.745C63.9748 128.553 60.996 126.746 58.4223 124.316C56.6267 122.62 55.1574 120.734 53.9999 118.731L60.6439 112.156Z" fill="#BAD0F7"/>
<path fill-rule="evenodd" clip-rule="evenodd" d="M219.891 136.952C217.992 137.419 216.131 138.131 214.364 139.135C211.834 140.57 209.753 142.439 208.138 144.571L204.794 141.94C205.817 139.505 207.368 137.221 209.454 135.25C210.909 133.876 212.528 132.75 214.248 131.863L219.891 136.952Z" fill="#3079EC"/>
</g>
<defs>
<linearGradient id="paint0_linear_1_1109" x1="167" y1="-2.27151e-08" x2="167.733" y2="509.487" gradientUnits="userSpaceOnUse">
<stop stop-color="#E7F0FD"/>
<stop offset="1" stop-color="#FCEDE8"/>
</linearGradient>
<clipPath id="clip0_1_1109">
<rect width="334" height="321" rx="20" fill="white"/>
</clipPath>
</defs>
</svg>
