<svg width="20" height="20" viewBox="0 0 20 20" fill="none" xmlns="http://www.w3.org/2000/svg">
<path d="M14.1188 4.22L14.1202 4.22175C14.7138 4.98612 14.9896 5.73164 14.9896 6.97509V7.33011C14.9896 7.90814 15.0662 8.4011 15.2447 8.86046C15.4225 9.31834 15.6882 9.70823 16.0192 10.0948L16.0191 10.0948L16.0247 10.1011C16.3501 10.4705 16.4837 10.9732 16.4837 11.6299C16.4837 12.2191 16.2931 12.7667 15.9169 13.2119C15.3905 13.7713 14.6478 14.1291 13.8986 14.191L13.8971 14.1912C12.5912 14.3025 11.3018 14.3946 10.0007 14.3946C8.68903 14.3946 7.40305 14.3391 6.12147 14.1929L6.11217 14.1918L6.10284 14.191C5.35271 14.1291 4.61009 13.7712 4.08467 13.212C3.70814 12.7665 3.51699 12.2187 3.51699 11.6299C3.51699 10.974 3.65105 10.4709 3.97595 10.1011C4.32018 9.71123 4.5882 9.3187 4.76463 8.85763C4.94105 8.39655 5.01193 7.90358 5.01193 7.33011V6.97509C5.01193 5.70494 5.31812 4.9226 5.94739 4.1374C6.89923 2.97493 8.44034 2.2665 9.96347 2.2665H10.038C11.5972 2.2665 13.1876 3.01177 14.1188 4.22Z" stroke="#031025" stroke-width="1.2"/>
<circle cx="15" cy="4" r="2.5" fill="#EB5757" stroke="white"/>
<path d="M6.78999 14.5435C7.20666 16.2935 9.03999 17.3768 10.79 16.9601C11.9567 16.6268 12.8733 15.7101 13.2067 14.5435" stroke="#031025" stroke-width="1.2"/>
</svg>
