<svg width="20" height="20" viewBox="0 0 20 20" fill="none" xmlns="http://www.w3.org/2000/svg">
<path d="M13.3327 1.66797H6.66602C6.00298 1.66797 5.3671 1.93136 4.89826 2.4002C4.42941 2.86904 4.16602 3.50493 4.16602 4.16797V17.5013C4.16544 17.6481 4.20367 17.7925 4.27684 17.9198C4.35001 18.0472 4.45552 18.1529 4.58269 18.2263C4.70937 18.2994 4.85307 18.3379 4.99936 18.3379C5.14564 18.3379 5.28934 18.2994 5.41602 18.2263L9.99936 15.5763L14.5827 18.2263C14.7097 18.2983 14.8534 18.3356 14.9994 18.3346C15.1453 18.3356 15.289 18.2983 15.416 18.2263C15.5432 18.1529 15.6487 18.0472 15.7219 17.9198C15.795 17.7925 15.8333 17.6481 15.8327 17.5013V4.16797C15.8327 3.50493 15.5693 2.86904 15.1005 2.4002C14.6316 1.93136 13.9957 1.66797 13.3327 1.66797ZM14.166 16.0596L10.416 13.893C10.2893 13.8198 10.1456 13.7813 9.99936 13.7813C9.85307 13.7813 9.70937 13.8198 9.58269 13.893L5.83269 16.0596V4.16797C5.83269 3.94695 5.92049 3.73499 6.07677 3.57871C6.23305 3.42243 6.44501 3.33464 6.66602 3.33464H13.3327C13.5537 3.33464 13.7657 3.42243 13.9219 3.57871C14.0782 3.73499 14.166 3.94695 14.166 4.16797V16.0596Z" fill="#031025"/>
</svg>
