<svg width="17" height="17" viewBox="0 0 17 17" fill="none" xmlns="http://www.w3.org/2000/svg">
<path d="M16.0829 14.9167L13.9995 12.8334C16.5829 9.58337 16.0829 4.83337 12.8329 2.25004C9.58288 -0.333297 4.83288 0.250036 2.24955 3.4167C-0.333786 6.6667 0.249548 11.4167 3.41621 14C6.16621 16.1667 10.0829 16.1667 12.8329 14L14.9162 16.0834C15.2495 16.4167 15.7495 16.4167 16.0829 16.0834C16.4162 15.75 16.4162 15.25 16.0829 14.9167ZM8.16621 14C4.91621 14 2.33288 11.4167 2.33288 8.1667C2.33288 4.9167 4.91621 2.33337 8.16621 2.33337C11.4162 2.33337 13.9995 4.9167 13.9995 8.1667C13.9995 11.4167 11.4162 14 8.16621 14Z" fill="#031025"/>
</svg>
